<svg width="96" height="59" viewBox="0 0 96 59" fill="none" xmlns="http://www.w3.org/2000/svg">
<g clip-path="url(#clip0_3051_1508)">
<path d="M27.2631 21.8894C27.2631 23.0569 27.3893 24.0036 27.6102 24.6978C27.8626 25.392 28.1782 26.1494 28.6199 26.9698C28.7777 27.2223 28.8408 27.4747 28.8408 27.6956C28.8408 28.0111 28.6515 28.3267 28.2413 28.6422L26.2533 29.9676C25.9693 30.1569 25.6853 30.2516 25.4328 30.2516C25.1173 30.2516 24.8017 30.0938 24.4862 29.8098C24.0444 29.3365 23.6657 28.8316 23.3502 28.3267C23.0346 27.7903 22.7191 27.1907 22.372 26.4649C19.9106 29.368 16.8182 30.8196 13.0947 30.8196C10.444 30.8196 8.3298 30.0622 6.78359 28.5476C5.23737 27.0329 4.44849 25.0134 4.44849 22.4889C4.44849 19.8067 5.39515 17.6294 7.32003 15.9885C9.24491 14.3476 11.8009 13.5272 15.0511 13.5272C16.124 13.5272 17.2284 13.6219 18.396 13.7796C19.5635 13.9374 20.7626 14.1899 22.0249 14.4739V12.1703C22.0249 9.7721 21.52 8.09966 20.5418 7.12145C19.532 6.14323 17.828 5.6699 15.3982 5.6699C14.2938 5.6699 13.1578 5.79612 11.9902 6.08012C10.8227 6.36411 9.68669 6.71123 8.58225 7.153C8.07736 7.37389 7.6987 7.50011 7.47781 7.56322C7.25692 7.62633 7.09914 7.65789 6.97292 7.65789C6.53114 7.65789 6.31026 7.34233 6.31026 6.67967V5.13345C6.31026 4.62857 6.37337 4.2499 6.53114 4.02901C6.68892 3.80813 6.97292 3.58724 7.4147 3.36635C8.51914 2.79835 9.84446 2.32502 11.3907 1.94636C12.9369 1.53613 14.5778 1.3468 16.3133 1.3468C20.0684 1.3468 22.8137 2.1988 24.5809 3.90279C26.3164 5.60678 27.2 8.19433 27.2 11.6654V21.8894H27.2631ZM14.4516 26.6858C15.4929 26.6858 16.5658 26.4965 17.7018 26.1178C18.8378 25.7391 19.8475 25.0449 20.6995 24.0983C21.2044 23.4987 21.5831 22.836 21.7724 22.0787C21.9618 21.3214 22.088 20.4063 22.088 19.3334V18.0081C21.1729 17.7872 20.1946 17.5978 19.1849 17.4716C18.1751 17.3454 17.1969 17.2823 16.2187 17.2823C14.1044 17.2823 12.5582 17.6925 11.5169 18.5445C10.4756 19.3965 9.97069 20.5956 9.97069 22.1734C9.97069 23.6565 10.3494 24.7609 11.1382 25.5183C11.8956 26.3071 13 26.6858 14.4516 26.6858ZM39.7906 30.0938C39.2226 30.0938 38.8439 29.9991 38.5915 29.7782C38.339 29.5889 38.1181 29.1471 37.9288 28.5476L30.5133 4.15524C30.3239 3.52413 30.2293 3.11391 30.2293 2.89302C30.2293 2.38813 30.4817 2.10413 30.9866 2.10413H34.079C34.6786 2.10413 35.0888 2.1988 35.3097 2.41969C35.5621 2.60902 35.7515 3.0508 35.9408 3.65035L41.2421 24.54L46.1648 3.65035C46.3225 3.01924 46.5119 2.60902 46.7643 2.41969C47.0168 2.23035 47.4585 2.10413 48.0265 2.10413H50.551C51.1505 2.10413 51.5607 2.1988 51.8132 2.41969C52.0656 2.60902 52.2865 3.0508 52.4127 3.65035L57.3985 24.7925L62.8576 3.65035C63.0469 3.01924 63.2678 2.60902 63.4887 2.41969C63.7411 2.23035 64.1514 2.10413 64.7194 2.10413H67.654C68.1589 2.10413 68.4429 2.35658 68.4429 2.89302C68.4429 3.0508 68.4113 3.20857 68.3798 3.39791C68.3482 3.58724 68.2851 3.83968 68.1589 4.18679L60.554 28.5791C60.3647 29.2102 60.1438 29.6205 59.8914 29.8098C59.6389 29.9991 59.2287 30.1254 58.6923 30.1254H55.9785C55.3789 30.1254 54.9687 30.0307 54.7163 29.8098C54.4638 29.5889 54.243 29.1787 54.1167 28.5476L49.2256 8.19433L44.3661 28.516C44.2083 29.1471 44.019 29.5574 43.7666 29.7782C43.5141 29.9991 43.0723 30.0938 42.5043 30.0938H39.7906ZM80.3393 30.9458C78.6984 30.9458 77.0575 30.7565 75.4798 30.3778C73.902 29.9991 72.6713 29.5889 71.8509 29.1156C71.346 28.8316 70.9989 28.516 70.8727 28.232C70.7464 27.948 70.6833 27.6325 70.6833 27.3485V25.7391C70.6833 25.0765 70.9358 24.7609 71.4091 24.7609C71.5984 24.7609 71.7878 24.7925 71.9771 24.8556C72.1664 24.9187 72.4504 25.0449 72.766 25.1712C73.8389 25.6445 75.0064 26.0231 76.2371 26.2756C77.4993 26.528 78.73 26.6543 79.9922 26.6543C81.9802 26.6543 83.5264 26.3071 84.5993 25.6129C85.6722 24.9187 86.2402 23.9089 86.2402 22.6152C86.2402 21.7316 85.9562 21.0058 85.3882 20.4063C84.8202 19.8067 83.7473 19.2703 82.2011 18.7654L77.6255 17.3454C75.322 16.6196 73.618 15.5467 72.5767 14.1267C71.5353 12.7383 70.9989 11.1921 70.9989 9.55121C70.9989 8.22588 71.2829 7.05833 71.8509 6.04856C72.4189 5.03879 73.1762 4.15524 74.1229 3.46102C75.0695 2.73524 76.1424 2.1988 77.4046 1.82013C78.6669 1.44147 79.9922 1.28369 81.3806 1.28369C82.0748 1.28369 82.8006 1.31525 83.4948 1.40991C84.2206 1.50458 84.8833 1.6308 85.5459 1.75702C86.177 1.9148 86.7766 2.07258 87.3446 2.26191C87.9126 2.45124 88.3544 2.64057 88.6699 2.82991C89.1117 3.08235 89.4273 3.33479 89.6166 3.61879C89.8059 3.87124 89.9006 4.21835 89.9006 4.66012V6.14323C89.9006 6.80589 89.6481 7.153 89.1748 7.153C88.9224 7.153 88.5121 7.02678 87.9757 6.77434C86.177 5.95389 84.1575 5.54367 81.9171 5.54367C80.1184 5.54367 78.6984 5.82767 77.7202 6.42723C76.742 7.02678 76.2371 7.94189 76.2371 9.23566C76.2371 10.1192 76.5526 10.8765 77.1838 11.4761C77.8149 12.0756 78.9824 12.6752 80.6548 13.2116L85.1357 14.6316C87.4077 15.3574 89.0486 16.3672 90.0268 17.661C91.005 18.9547 91.4784 20.4378 91.4784 22.0787C91.4784 23.4356 91.1944 24.6663 90.6579 25.7391C90.0899 26.812 89.3326 27.7587 88.3544 28.516C87.3762 29.3049 86.2086 29.8729 84.8517 30.2831C83.4317 30.7249 81.9486 30.9458 80.3393 30.9458Z" fill="#646464"/>
<path fill-rule="evenodd" clip-rule="evenodd" d="M86.3024 46.2825C75.9207 53.9505 60.8372 58.0211 47.8679 58.0211C29.692 58.0211 13.3147 51.2998 0.944982 40.1292C-0.0332363 39.2457 0.850316 38.0466 2.01787 38.7408C15.3974 46.5034 31.9009 51.2052 48.9723 51.2052C60.4901 51.2052 73.1438 48.807 84.7878 43.8843C86.5233 43.0954 88.0064 45.0203 86.3024 46.2825Z" fill="#646464"/>
<path fill-rule="evenodd" clip-rule="evenodd" d="M90.6254 41.3592C89.3001 39.6552 81.853 40.5388 78.4766 40.949C77.4668 41.0752 77.309 40.1917 78.2241 39.529C84.1566 35.3637 93.9072 36.5628 95.0432 37.9512C96.1792 39.3712 94.7276 49.1219 89.1739 53.7921C88.3219 54.5178 87.5014 54.1392 87.8801 53.1925C89.1423 50.0685 91.9508 43.0317 90.6254 41.3592Z" fill="#646464"/>
</g>
<defs>
<clipPath id="clip0_3051_1508">
<rect width="95.9285" height="57.4309" fill="white" transform="translate(0 0.936523)"/>
</clipPath>
</defs>
</svg>
