<svg width="59" height="59" viewBox="0 0 59 59" fill="none" xmlns="http://www.w3.org/2000/svg">
<path d="M55.0049 30.2615C55.0049 28.3598 54.8342 26.5311 54.5173 24.7756H29.2577V35.1623H43.6917C43.0578 38.5026 41.156 41.3309 38.3033 43.2327V49.9864H47.0077C52.0791 45.3051 55.0049 38.4295 55.0049 30.2615Z" fill="#646464"/>
<path d="M29.2574 56.472C36.4988 56.472 42.5699 54.0826 47.0074 49.9865L38.3031 43.2327C35.9136 44.8419 32.8659 45.8172 29.2574 45.8172C22.2842 45.8172 16.3594 41.1115 14.2382 34.7722H5.31445V41.6967C9.72756 50.4497 18.7732 56.472 29.2574 56.472Z" fill="#646464"/>
<path d="M14.2388 34.7472C13.7024 33.1379 13.3854 31.4312 13.3854 29.6513C13.3854 27.8715 13.7024 26.1647 14.2388 24.5555V17.6311H5.31504C3.48641 21.2396 2.43799 25.3114 2.43799 29.6513C2.43799 33.9913 3.48641 38.0631 5.31504 41.6716L12.2639 36.2588L14.2388 34.7472Z" fill="#646464"/>
<path d="M29.2574 13.5113C33.2073 13.5113 36.7182 14.8767 39.5222 17.5099L47.2024 9.82962C42.5455 5.48965 36.4988 2.83203 29.2574 2.83203C18.7732 2.83203 9.72756 8.85434 5.31445 17.6318L14.2382 24.5562C16.3594 18.217 22.2842 13.5113 29.2574 13.5113Z" fill="#646464"/>
</svg>
