<svg width="59" height="59" viewBox="0 0 59 59" fill="none" xmlns="http://www.w3.org/2000/svg">
<g clip-path="url(#clip0_3051_1514)">
<path d="M12.3894 0.393555H15.0181V2.99936H17.441V0.393555H20.0697V8.27955H17.441V5.65089H15.0409V8.27955H12.3894M23.5441 3.02222H21.224V0.393555H28.5043V3.02222H26.1728V8.27955H23.5441M29.6586 0.393555H32.413L34.1045 3.1708L35.796 0.393555H38.5503V8.27955H35.9217V4.37084L34.0816 7.20523L32.2415 4.37084V8.27955H29.6586M39.8533 0.393555H42.4819V5.67374H46.2078V8.27955H39.8533" fill="#646464"/>
<path d="M12.2979 54.2236L8.52637 11.8906H49.9907L46.2191 54.2007L29.2243 58.9095" fill="#646464"/>
<path d="M29.2593 55.3103V15.366H46.2085L42.9741 51.4815" fill="#646464"/>
<path d="M16.2302 20.5422H29.2593V25.731H21.9219L22.4019 31.0455H29.2593V36.2228H17.6474M17.876 38.8286H23.0876L23.4533 42.9773L29.2593 44.5317V49.949L18.6075 46.9775" fill="#ACACAC"/>
<path d="M42.242 20.5422H29.2358V25.731H41.762M41.2934 31.0455H29.2358V36.2342H35.6361L35.0303 42.9773L29.2358 44.5317V49.9261L39.8648 46.9775" fill="#ACACAC"/>
</g>
<defs>
<clipPath id="clip0_3051_1514">
<rect width="58.5164" height="58.5164" fill="white" transform="translate(0 0.393555)"/>
</clipPath>
</defs>
</svg>
