<svg width="121" height="75" viewBox="0 0 121 75" fill="none" xmlns="http://www.w3.org/2000/svg">
<g clip-path="url(#clip0_3051_1539)">
<path d="M59.3512 74.8444C58.9548 74.8444 58.5612 74.7393 58.2138 74.5369L54.5935 72.369C54.0528 72.0632 54.3166 71.955 54.495 71.8927C55.2159 71.6373 55.3623 71.5797 56.1318 71.1376C56.2127 71.0909 56.3186 71.1074 56.4013 71.1568L59.1826 72.8262C59.283 72.8811 59.4255 72.8811 59.5186 72.8262L70.3629 66.4948C70.4633 66.4372 70.5285 66.3191 70.5285 66.1983V53.5412C70.5285 53.4149 70.4633 53.3023 70.3607 53.2392L59.5208 46.9133C59.4204 46.8529 59.2874 46.8529 59.1869 46.9133L48.3492 53.2392C48.2441 53.2996 48.1773 53.4176 48.1773 53.5384V66.1956C48.1773 66.3164 48.2425 66.4317 48.3456 66.4893L51.3153 68.2246C52.9276 69.04 53.913 68.079 53.913 67.1126V54.6202C53.913 54.4417 54.0514 54.3045 54.2279 54.3045H55.6014C55.7724 54.3045 55.9136 54.4417 55.9136 54.6202V67.1181C55.9136 69.2926 54.7409 70.5418 52.7023 70.5418C52.0753 70.5418 51.5813 70.5418 50.2023 69.8554L47.3576 68.1971C46.6545 67.7853 46.2202 67.0165 46.2202 66.1956V53.5384C46.2202 52.7148 46.6545 51.946 47.3576 51.5397L58.2127 45.2056C58.8995 44.813 59.8115 44.813 60.4929 45.2056L71.3344 51.5424C72.0347 51.9515 72.4718 52.7175 72.4718 53.5412V66.1983C72.4718 67.0192 72.0347 67.7853 71.3344 68.1971L60.4929 74.5312C60.1454 74.7343 59.7518 74.8387 59.3501 74.8387" fill="#646464"/>
<path d="M62.7016 66.1236C57.9568 66.1236 56.9619 63.9206 56.9619 62.0728C56.9619 61.8971 57.102 61.7571 57.276 61.7571H58.6766C58.8314 61.7571 58.9617 61.871 58.9861 62.0256C59.1978 63.4692 59.8276 64.1973 62.6968 64.1973C64.9823 64.1973 65.9541 63.6751 65.9541 62.4492C65.9541 61.7436 65.6772 61.2192 62.1267 60.8678C59.1571 60.5713 57.3221 59.9096 57.3221 57.5072C57.3221 55.2942 59.168 53.9764 62.2597 53.9764C65.7315 53.9764 67.4525 55.1954 67.6697 57.8147C67.6778 57.9053 67.6452 57.9932 67.5855 58.059C67.5258 58.1222 67.4416 58.1606 67.3548 58.1606H65.946C65.7994 58.1606 65.6718 58.0563 65.6419 57.9135C65.3026 56.3952 64.4829 55.9093 62.2543 55.9093C59.7597 55.9093 59.4693 56.7878 59.4693 57.4468C59.4693 58.2457 59.8113 58.4791 63.1772 58.9294C66.5106 59.3769 68.0931 60.0084 68.0931 62.3778C68.0931 64.7665 66.1224 66.1365 62.6859 66.1365M75.8945 52.7134H76.2582C76.5568 52.7134 76.6138 52.502 76.6138 52.3784C76.6138 52.0545 76.3939 52.0545 76.2718 52.0545H75.8972L75.8945 52.7134ZM75.452 51.6756H76.2582C76.5351 51.6756 77.078 51.6756 77.078 52.3016C77.078 52.7381 76.8011 52.8287 76.6355 52.8836C76.9585 52.9056 76.9802 53.1197 77.0237 53.4218C77.0454 53.6112 77.0807 53.9379 77.1458 54.0477H76.6491C76.6355 53.9379 76.5595 53.3339 76.5595 53.301C76.5269 53.1664 76.4808 53.1005 76.3152 53.1005H75.9053V54.0505H75.452V51.6756ZM74.483 52.8562C74.483 53.8391 75.2674 54.6353 76.2311 54.6353C77.2028 54.6353 77.9873 53.8226 77.9873 52.8562C77.9873 51.8705 77.192 51.088 76.2283 51.088C75.2783 51.088 74.4802 51.8595 74.4802 52.8534M78.3239 52.8617C78.3239 54.0258 77.382 54.9758 76.2338 54.9758C75.0937 54.9758 74.1436 54.0368 74.1436 52.8617C74.1436 51.6646 75.1154 50.7476 76.2338 50.7476C77.3603 50.7476 78.3212 51.6673 78.3212 52.8617" fill="#646464"/>
<path fill-rule="evenodd" clip-rule="evenodd" d="M25.7704 25.3204C25.7704 24.8152 25.5071 24.3512 25.076 24.1L13.5786 17.409C13.3846 17.2937 13.1671 17.2333 12.9467 17.2251H12.8278C12.6074 17.2333 12.39 17.2937 12.1926 17.409L0.695811 24.1C0.267469 24.3526 0.000366211 24.8166 0.000366211 25.3218L0.0256107 43.3438C0.0256107 43.5936 0.15319 43.827 0.370347 43.9506C0.582075 44.0824 0.848092 44.0824 1.05982 43.9506L7.89483 39.9914C8.32643 39.7317 8.58973 39.2726 8.58973 38.7724V30.3531C8.58973 29.8506 8.85304 29.3866 9.28328 29.1368L12.1932 27.4417C12.4093 27.3154 12.6465 27.2528 12.8881 27.2528C13.1259 27.2528 13.3685 27.3148 13.5786 27.4414L16.4872 29.136C16.9177 29.3858 17.1821 29.8498 17.1821 30.3522V38.771C17.1821 39.2707 17.4489 39.732 17.8783 39.9901L24.709 43.9464C24.9235 44.0755 25.1903 44.0755 25.4039 43.9464C25.6146 43.8229 25.7481 43.5895 25.7481 43.3397L25.7704 25.3204ZM80.0238 34.7037C80.0238 34.8292 79.9578 34.9453 79.85 35.0074L75.901 37.3098C75.7938 37.3722 75.6613 37.3722 75.5544 37.3098L71.6049 35.0074C71.4963 34.9451 71.4311 34.8289 71.4311 34.7037V30.0922C71.4311 29.9665 71.4963 29.8506 71.6021 29.7875L75.549 27.4812C75.6575 27.418 75.7906 27.418 75.8991 27.4812L79.8487 29.7875C79.9573 29.8506 80.0224 29.9665 80.0224 30.0922L80.0238 34.7037ZM81.0905 0.548126C80.875 0.426771 80.6128 0.430066 80.4 0.555539C80.1883 0.681836 80.0574 0.912465 80.0574 1.16231V19.0086C80.0574 19.1843 79.9651 19.3463 79.8147 19.4342C79.6654 19.522 79.4795 19.522 79.3288 19.4342L76.4488 17.7563C76.0199 17.5054 75.4917 17.5054 75.0612 17.7563L63.56 24.4701C63.1303 24.72 62.8651 25.184 62.8651 25.6837V39.115C62.8651 39.6175 63.1303 40.0788 63.56 40.3313L75.0612 47.0498C75.4906 47.2996 76.0194 47.2996 76.4502 47.0498L87.9513 40.3286C88.3802 40.076 88.6462 39.6147 88.6462 39.1123V5.63816C88.6462 5.12858 88.3721 4.65991 87.9323 4.41089L81.0905 0.548126ZM119.39 29.9709C119.817 29.7199 120.08 29.2565 120.08 28.7568V25.5016C120.08 25.0008 119.817 24.5388 119.389 24.2867L107.961 17.5765C107.529 17.3239 107 17.3239 106.568 17.5765L95.0697 24.2895C94.6381 24.542 94.3748 25.0033 94.3748 25.5057V38.9316C94.3748 39.4368 94.6436 39.9036 95.0752 40.1534L106.5 46.7401C106.921 46.9844 107.437 46.9872 107.863 46.7483L114.774 42.8633C114.991 42.7398 115.13 42.5064 115.13 42.2538C115.13 42.0012 114.997 41.7651 114.779 41.6415L103.21 34.9258C102.993 34.8023 102.86 34.5689 102.86 34.3191V30.1073C102.86 29.8558 102.991 29.6241 103.208 29.4989L106.807 27.3986C107.022 27.2723 107.285 27.2723 107.499 27.3986L111.101 29.4989C111.316 29.6225 111.449 29.8558 111.449 30.1057V33.4169C111.449 33.6667 111.582 33.9001 111.796 34.0264C112.011 34.1499 112.277 34.1499 112.491 34.0236L119.39 29.9709Z" fill="#646464"/>
<path fill-rule="evenodd" clip-rule="evenodd" d="M107.096 29.3428C107.177 29.2942 107.279 29.2942 107.362 29.3428L109.569 30.6305C109.651 30.6788 109.702 30.7678 109.702 30.8639V33.442C109.702 33.5381 109.651 33.6271 109.569 33.6754L107.362 34.9631C107.279 35.0116 107.177 35.0116 107.096 34.9631L104.89 33.6754C104.806 33.6271 104.755 33.5381 104.755 33.442V30.8639C104.755 30.7678 104.804 30.6788 104.888 30.6305L107.096 29.3428Z" fill="#646464"/>
<mask id="mask0_3051_1539" style="mask-type:luminance" maskUnits="userSpaceOnUse" x="31" y="17" width="27" height="30">
<path d="M43.6282 17.6435L32.1922 24.3199C31.7639 24.5698 31.5011 25.031 31.5011 25.5296V38.8918C31.5011 39.3907 31.7639 39.8517 32.1922 40.1015L43.629 46.7832C44.0566 47.0322 44.5837 47.0322 45.0107 46.7832L56.4456 40.1015C56.8718 39.8517 57.1351 39.3904 57.1351 38.8918V25.5296C57.1351 25.031 56.8718 24.5698 56.4429 24.3199L45.0096 17.6435C44.7952 17.5191 44.5563 17.4568 44.3174 17.4568C44.0786 17.4568 43.8397 17.5191 43.6252 17.6435" fill="white"/>
</mask>
<g mask="url(#mask0_3051_1539)">
<path d="M68.6932 23.1865L36.4685 7.20996L19.9456 41.303L52.1695 57.2803L68.6932 23.1865Z" fill="#646464"/>
</g>
<mask id="mask1_3051_1539" style="mask-type:luminance" maskUnits="userSpaceOnUse" x="31" y="17" width="26" height="30">
<path d="M31.7853 39.74C31.8947 39.8836 32.0315 40.0079 32.1924 40.1013L42.0025 45.8327L43.6366 46.7827C43.8809 46.9254 44.1594 46.9858 44.433 46.9653C44.5242 46.9578 44.6155 46.9405 44.7045 46.915L56.7659 24.5769C56.6736 24.4754 56.5656 24.3903 56.4445 24.3189L48.9564 19.9452L44.9982 17.6416C44.8858 17.5757 44.7639 17.529 44.6399 17.4961L31.7853 39.74Z" fill="white"/>
</mask>
<g mask="url(#mask1_3051_1539)">
<path d="M17.8527 27.911L40.6066 59.0604L70.6992 36.5725L47.9438 5.42383L17.8527 27.911Z" fill="#646464"/>
</g>
<mask id="mask2_3051_1539" style="mask-type:luminance" maskUnits="userSpaceOnUse" x="32" y="17" width="26" height="30">
<path d="M44.1812 17.464C43.9893 17.4832 43.8017 17.5436 43.6288 17.643L32.2253 24.3002L44.5219 46.954C44.6929 46.9293 44.8612 46.8716 45.0132 46.7827L56.4492 40.101C56.8021 39.894 57.0437 39.5437 57.117 39.1466L44.5816 17.4867C44.4893 17.4683 44.397 17.4587 44.302 17.4587C44.264 17.4587 44.226 17.4607 44.188 17.4642" fill="white"/>
</mask>
<g mask="url(#mask2_3051_1539)">
<path d="M32.2253 17.4587V46.9545H57.1123V17.4587H32.2253Z" fill="#646464"/>
</g>
</g>
<defs>
<clipPath id="clip0_3051_1539">
<rect width="120.08" height="74.3858" fill="white" transform="translate(0 0.458984)"/>
</clipPath>
</defs>
</svg>
