<svg width="196" height="31" viewBox="0 0 196 31" fill="none" xmlns="http://www.w3.org/2000/svg">
<g clip-path="url(#clip0_3051_1537)">
<path d="M12.2054 12.692H2.73204V3.16477H12.7188C16.3738 3.16477 18.2018 4.77712 18.2018 7.99717C18.2018 11.1243 16.2024 12.6874 12.2045 12.6874M19.0135 3.05326C17.7153 1.89069 15.8994 1.30941 13.5654 1.30941L-0.00012207 1.38469V24.175H2.73204L2.70695 14.4731H12.8011C15.3325 14.4731 17.325 13.8922 18.7789 12.7297C20.2328 11.5671 20.9558 9.95429 20.9558 7.89123C20.9558 5.82817 20.3066 4.22047 19.0042 3.05326H19.0135ZM36.7075 19.3914C36.4301 20.1609 35.9975 20.8067 35.4065 21.3299C34.1826 22.525 32.3147 23.1216 29.8018 23.1216C27.5334 23.1216 25.7919 22.5408 24.5768 21.3792C23.3617 20.2176 22.754 18.6638 22.754 16.7206C22.754 15.7062 22.9129 14.8062 23.2312 14.0256C23.5495 13.245 24.0099 12.5773 24.6135 12.0369C25.8699 10.8915 27.5994 10.3186 29.8023 10.3186C34.6812 10.3186 37.1206 12.4541 37.1206 16.7248C37.1206 17.7391 36.9812 18.6312 36.7043 19.3998M37.2001 10.9923C35.5343 9.47291 33.0684 8.71413 29.8028 8.71413C26.7161 8.71413 24.3319 9.4901 22.6499 11.0374C21.1314 12.4416 20.3722 14.3364 20.3722 16.7201C20.3722 19.088 21.1556 20.9986 22.7233 22.4516C23.5885 23.236 24.5972 23.7991 25.7436 24.1541C26.8899 24.5091 28.2462 24.6806 29.7972 24.6806C33.0465 24.6806 35.5203 23.9297 37.2191 22.427C38.7376 21.0553 39.4973 19.1535 39.4973 16.7197C39.4973 14.2709 38.7292 12.3598 37.1945 10.9877L37.2001 10.9923ZM57.8762 20.0498C57.8762 23.1175 55.1278 24.6513 49.6305 24.6513C47.9503 24.6513 46.5359 24.5444 45.3849 24.326C44.234 24.1076 43.301 23.7592 42.5831 23.2666C42.0287 22.8949 41.5887 22.4014 41.2621 21.7974C40.9354 21.1933 40.724 20.4346 40.6264 19.5206L43.1839 19.496C43.1839 20.7031 43.6313 21.5925 44.5314 22.164C45.4918 22.8498 47.1938 23.1923 49.6356 23.1923C53.4773 23.1923 55.3987 22.2304 55.3987 20.304C55.3987 19.1786 54.7542 18.3989 53.4657 17.9789C53.2041 17.8971 51.6508 17.6815 48.8043 17.3307C45.9578 16.9799 44.1843 16.6662 43.4831 16.3884C41.966 15.7843 41.2077 14.6993 41.2077 13.1325C41.2077 11.5992 41.8847 10.4561 43.2406 9.7057C43.9097 9.39578 44.747 9.15509 45.7515 8.98363C46.7561 8.81217 47.9196 8.72621 49.2425 8.72621C54.5335 8.72621 57.1788 10.3864 57.1788 13.7064H54.7468C54.7468 11.3729 52.8868 10.2057 49.1677 10.2057C47.2756 10.2057 45.8686 10.438 44.9393 10.9152C44.01 11.3924 43.5454 12.1149 43.5454 13.0991C43.5454 14.013 44.1726 14.6789 45.4295 15.0817C46.1637 15.2941 47.8522 15.5394 50.4957 15.8159C52.8654 16.0282 54.4847 16.3293 55.3652 16.722C57.0459 17.3748 57.886 18.4844 57.886 20.0503L57.8762 20.0498ZM67.922 24.2015L66.8812 24.3479L66.2326 24.3962C64.5677 24.3962 63.367 24.1546 62.6301 23.6723C61.8931 23.19 61.5256 22.3434 61.5256 21.1334V10.7358H58.4914V9.20248H61.501L61.5251 4.28831H63.8568V9.20713H67.9169V10.7619L63.8568 10.7368V20.856C63.8568 21.6097 64.0566 22.1291 64.4608 22.4163C64.8651 22.7035 65.5746 22.8461 66.5982 22.8461C66.7451 22.8628 66.9086 22.8577 67.088 22.8303C67.2673 22.8029 67.5368 22.7411 67.8965 22.6463L67.9211 24.2066L67.922 24.2015ZM84.0478 20.7556C83.4113 21.2774 82.6864 21.6766 81.8705 21.9544C81.0545 22.2323 80.1173 22.3703 79.0575 22.3703C74.1809 22.3703 71.7429 20.3565 71.7429 16.3284C71.7429 14.4531 72.3664 12.9857 73.6145 11.9258C74.8626 10.8659 76.6189 10.3358 78.8865 10.3358C81.1698 10.3358 82.9025 10.8701 84.085 11.9379C85.2675 13.0057 85.8591 14.4377 85.8591 16.2313C85.8591 18.1828 85.255 19.6962 84.0483 20.757M88.1907 9.21875H85.8591L85.8344 11.7897C84.8066 10.7461 84.072 10.0858 83.632 9.80839C82.3309 9.09097 80.6373 8.73225 78.5649 8.73225C75.5293 8.73225 73.2121 9.42552 71.6128 10.812C70.0947 12.0843 69.336 13.9275 69.336 16.3414C69.336 17.5323 69.5279 18.5964 69.9121 19.5336C70.2964 20.4708 70.8554 21.2668 71.5914 21.9187C73.1931 23.2559 75.4564 23.925 78.3818 23.925C81.8956 23.925 84.388 22.9641 85.8591 21.0419V23.7034C85.8591 25.4003 85.3247 26.7143 84.256 27.6437C83.1873 28.573 81.4286 29.0395 78.9808 29.0395C76.6798 29.0395 75.0405 28.7221 74.061 28.0888C73.3269 27.6018 72.8204 26.7562 72.5435 25.5546H70.1445C70.4056 27.2338 71.1202 28.448 72.2744 29.1975C73.6126 30.0617 75.8736 30.4985 79.0575 30.4985C85.1458 30.4985 88.1907 28.2347 88.1907 23.7076V9.21735V9.21875ZM100.801 10.7321C100.104 10.6183 99.4483 10.5611 98.8498 10.5611C95.0164 10.5611 93.1021 12.6628 93.1021 16.8656V24.1746H90.7951L90.77 9.21875L93.1025 9.24198V11.9105H93.2247C93.616 10.859 94.2358 10.0612 95.0834 9.51938C96.0127 8.99432 97.3987 8.73086 99.242 8.73086H100.807V10.7321H100.801ZM102.971 15.7504C103.265 14.0507 103.926 12.7301 104.953 11.8027C105.622 11.2637 106.38 10.8585 107.228 10.589C108.076 10.3195 109.031 10.1848 110.091 10.1848C112.163 10.1848 113.854 10.753 115.168 11.8891C116.481 13.0252 117.137 14.3123 117.137 15.7457H102.967M117.361 11.1317C116.545 10.3139 115.532 9.70803 114.324 9.31958C113.116 8.93113 111.704 8.72947 110.087 8.72947C107.066 8.72947 104.723 9.43202 103.057 10.8362C101.392 12.2404 100.559 14.151 100.559 16.5682C100.559 18.9853 101.36 20.9034 102.959 22.3238C104.689 23.8916 107.129 24.675 110.279 24.675C111.535 24.675 112.698 24.5323 113.767 24.2484C114.836 23.9645 115.771 23.5607 116.571 23.0413C117.974 22.033 118.863 20.7896 119.24 19.3101H116.719C115.855 21.8671 113.701 23.1458 110.259 23.1458C107.828 23.1458 105.959 22.5209 104.655 21.2695C103.529 20.1976 102.967 18.8092 102.967 17.1035H119.59C119.59 14.5664 118.848 12.5768 117.361 11.1359V11.1317ZM144.224 18.0551C144.224 22.4958 140.643 24.7159 133.48 24.7159C129.188 24.7159 126.056 23.9515 124.082 22.4205C122.466 21.1636 121.659 19.2469 121.659 16.6681H124.542C124.542 20.8137 127.516 22.8851 133.479 22.8851C136.336 22.8851 138.401 22.4614 139.674 21.6134C140.751 20.8639 141.29 19.6897 141.29 18.0913C141.29 16.5096 140.556 15.3963 139.087 14.7644C138.254 14.4219 136.221 13.9893 132.989 13.4634C128.925 12.8435 126.289 12.2241 125.08 11.6047C123.334 10.6912 122.461 9.14208 122.461 6.95681C122.461 4.91838 123.204 3.40221 124.69 2.40692C126.292 1.32939 129.034 0.782959 132.921 0.782959C139.94 0.782959 143.45 3.11459 143.45 7.77739H140.541C140.541 4.28459 137.939 2.53796 132.722 2.53796C130.108 2.53796 128.196 2.88923 126.987 3.59133C125.843 4.34221 125.271 5.44436 125.271 6.89734C125.271 8.41582 126.006 9.48546 127.476 10.1058C128.259 10.4649 130.561 10.9631 134.381 11.6001C137.972 12.1391 140.396 12.7673 141.654 13.4857C143.373 14.3676 144.225 15.8944 144.225 18.0653L144.224 18.0551ZM167.644 20.3309C166.566 21.1943 165.349 21.8411 163.992 22.2732C162.635 22.7053 161.111 22.9209 159.438 22.9209C156.007 22.9209 153.234 21.9916 151.121 20.1469C149.008 18.3023 147.948 15.8336 147.948 12.7589C147.948 9.54912 148.997 7.0437 151.097 5.25572C153.197 3.46773 155.979 2.56723 159.442 2.56723C162.955 2.56723 165.717 3.50397 167.726 5.37838C168.787 6.29143 169.572 7.35781 170.079 8.58449C170.586 9.81118 170.839 11.1996 170.839 12.7636C170.839 15.9572 169.776 18.4825 167.652 20.3402M169.184 21.8517C170.687 20.7923 171.799 19.5085 172.517 17.9951C173.236 16.4817 173.596 14.7458 173.596 12.7724C173.596 9.23361 172.421 6.39644 170.065 4.25996C168.808 3.08578 167.289 2.21316 165.51 1.64257C163.73 1.07197 161.699 0.782959 159.413 0.782959C154.973 0.782959 151.486 1.85956 148.957 4.0123C146.427 6.16504 145.161 9.08353 145.161 12.7682C145.161 16.3554 146.438 19.2502 148.992 21.4508C151.546 23.6514 155.035 24.7521 159.458 24.7521C161.188 24.7521 162.697 24.635 163.986 24.4013C165.276 24.1676 166.37 23.8075 167.267 23.3233L171.526 26.2757L173.305 24.6415L169.18 21.8443L169.184 21.8517ZM195.186 24.1843H175.485V1.35913L178.194 1.30988V22.2658H195.213L195.188 24.1708L195.186 24.1843Z" fill="#646464"/>
</g>
<defs>
<clipPath id="clip0_3051_1537">
<rect width="195.619" height="29.7378" fill="white" transform="translate(0 0.783203)"/>
</clipPath>
</defs>
</svg>
