<svg width="255" height="76" viewBox="0 0 255 76" fill="none" xmlns="http://www.w3.org/2000/svg">
<path d="M90.6509 30.4089C90.6509 23.2584 88.612 19.5875 84.5343 19.3865C82.9118 19.3099 81.3276 19.5684 79.7865 20.1666C78.5565 20.607 77.7285 21.0425 77.2929 21.4828V38.55C79.9014 40.1868 82.2178 40.9478 84.2375 40.8282C88.5115 40.5458 90.6509 37.0759 90.6509 30.4089ZM95.6811 30.7056C95.6811 34.3382 94.8291 37.3535 93.1157 39.7513C91.2061 42.465 88.5594 43.8625 85.1756 43.9391C82.6246 44.0205 79.9971 43.2212 77.2929 41.5461V57.0578L72.9185 55.4975V21.0664C73.6364 20.1858 74.5601 19.4296 75.68 18.7882C78.2837 17.2711 81.4473 16.4909 85.1708 16.4526L85.233 16.5149C88.6359 16.4718 91.2587 17.8693 93.1014 20.7027C94.8196 23.3015 95.6811 26.6326 95.6811 30.7056Z" fill="#646464"/>
<path d="M122.415 40.8856C122.415 45.7578 121.927 49.132 120.951 51.0082C119.97 52.8843 118.103 54.3823 115.346 55.4975C113.111 56.3781 110.694 56.8567 108.1 56.9381L107.377 54.1813C110.015 53.8224 111.872 53.4634 112.948 53.1045C115.069 52.3865 116.524 51.2857 117.323 49.8116C117.964 48.6103 118.28 46.3178 118.28 42.9245V41.7854C115.289 43.1446 112.154 43.8195 108.875 43.8195C106.722 43.8195 104.822 43.1446 103.185 41.7854C101.347 40.3065 100.428 38.4303 100.428 36.1569V17.9507L104.802 16.4526V34.7785C104.802 36.7361 105.434 38.2437 106.698 39.3014C107.961 40.3591 109.598 40.8664 111.603 40.8282C113.609 40.7851 115.758 40.0097 118.041 38.4925V17.1131H122.415V40.8856Z" fill="#646464"/>
<path d="M139.493 43.7C138.971 43.7431 138.493 43.7622 138.052 43.7622C135.578 43.7622 133.649 43.1736 132.271 41.9914C130.897 40.8092 130.208 39.1772 130.208 37.0952V19.8653H127.212V17.1133H130.208V9.80499L134.578 8.24951V17.1133H139.493V19.8653H134.578V36.9756C134.578 38.6172 135.018 39.7802 135.899 40.4599C136.655 41.0198 137.856 41.3405 139.493 41.4219V43.7Z" fill="#646464"/>
<path d="M165.978 43.342H161.604V26.4567C161.604 24.7385 161.202 23.2596 160.403 22.0248C159.479 20.6272 158.196 19.9284 156.55 19.9284C154.544 19.9284 152.037 20.9862 149.026 23.1016V43.342H144.652V2.98093L149.026 1.60254V19.9859C151.821 17.9518 154.875 16.9324 158.191 16.9324C160.508 16.9324 162.384 17.7125 163.82 19.268C165.26 20.8234 165.978 22.7618 165.978 25.0783V43.342Z" fill="#646464"/>
<path d="M189.229 29.7197C189.229 26.9724 188.707 24.7038 187.668 22.9091C186.433 20.7218 184.514 19.5684 181.92 19.4487C177.125 19.7263 174.731 23.1627 174.731 29.7484C174.731 32.7684 175.229 35.2907 176.234 37.3152C177.517 39.8949 179.441 41.168 182.006 41.1249C186.821 41.0866 189.229 37.2865 189.229 29.7197ZM194.019 29.7484C194.019 33.6586 193.019 36.9131 191.023 39.512C188.826 42.4219 185.792 43.8817 181.92 43.8817C178.082 43.8817 175.09 42.4219 172.932 39.512C170.974 36.9131 169.998 33.6586 169.998 29.7484C169.998 26.0727 171.056 22.9809 173.171 20.4634C175.406 17.7927 178.345 16.4526 181.978 16.4526C185.61 16.4526 188.568 17.7927 190.846 20.4634C192.962 22.9809 194.019 26.0727 194.019 29.7484Z" fill="#646464"/>
<path d="M219.099 43.3408H214.724V25.4983C214.724 23.5408 214.135 22.0141 212.958 20.9133C211.781 19.8173 210.211 19.286 208.253 19.3291C206.176 19.3674 204.2 20.047 202.323 21.3632V43.3408H197.949V20.8223C200.466 18.9893 202.783 17.7927 204.898 17.2328C206.894 16.7111 208.655 16.4526 210.173 16.4526C211.211 16.4526 212.188 16.5531 213.106 16.7542C214.825 17.1514 216.222 17.8885 217.299 18.9701C218.5 20.1666 219.099 21.6025 219.099 23.2824V43.3408Z" fill="#646464"/>
<path d="M29.7122 3.14181C27.4615 3.15227 25.3121 3.34422 23.4209 3.67887C17.8496 4.66313 16.8381 6.72329 16.8381 10.5226V15.5402H30.0037V17.2128H16.8381H11.8971C8.07083 17.2128 4.72041 19.5126 3.67244 23.8877C2.46362 28.9025 2.41 32.0319 3.67244 37.2682C4.6083 41.1659 6.84326 43.9431 10.6696 43.9431H15.1962V37.928C15.1962 33.5825 18.9561 29.7493 23.4209 29.7493H36.5712C40.2318 29.7493 43.1541 26.7353 43.1541 23.0591V10.5226C43.1541 6.95459 40.1441 4.27435 36.5712 3.67887C34.3096 3.30239 31.9629 3.13135 29.7122 3.14181ZM22.5923 7.17744C23.9522 7.17744 25.0628 8.30613 25.0628 9.69395C25.0628 11.0768 23.9522 12.1951 22.5923 12.1951C21.2275 12.1951 20.1218 11.0768 20.1218 9.69395C20.1218 8.30613 21.2275 7.17744 22.5923 7.17744Z" fill="#646464"/>
<path d="M44.7962 17.2122V23.0584C44.7962 27.591 40.9535 31.4059 36.5715 31.4059H23.4212C19.8191 31.4059 16.8384 34.4888 16.8384 38.0961V50.6327C16.8384 54.2006 19.941 56.2993 23.4212 57.3229C27.5887 58.5483 31.5851 58.7698 36.5715 57.3229C39.886 56.3633 43.1543 54.4319 43.1543 50.6327V45.615H30.004V43.9424H43.1543H49.7372C53.5635 43.9424 54.9893 41.2735 56.32 37.2675C57.6945 33.1435 57.6361 29.1775 56.32 23.8871C55.3744 20.0779 53.5684 17.2122 49.7372 17.2122H44.7962ZM37.4001 48.9601C38.7649 48.9601 39.8706 50.0784 39.8706 51.4613C39.8706 52.8491 38.7649 53.9778 37.4001 53.9778C36.0402 53.9778 34.9296 52.8491 34.9296 51.4613C34.9296 50.0784 36.0402 48.9601 37.4001 48.9601Z" fill="#646464"/>
<path d="M227.618 13.2136H228.384V8.40343H230.201V7.83008H225.801V8.40343H227.618V13.2136ZM230.881 13.2136H231.537V8.82042L232.959 13.2131H233.688L235.17 8.83531V13.2136H235.885V7.83008H234.94L233.32 12.4422L231.939 7.83008H230.881V13.2136Z" fill="#646464"/>
</svg>
