<svg width="194" height="59" viewBox="0 0 194 59" fill="none" xmlns="http://www.w3.org/2000/svg">
<g clip-path="url(#clip0_3051_1559)">
<path d="M77.0309 44.5193V13.647H90.2401C94.1063 13.647 97.0022 14.5217 98.9284 16.2712C100.854 18.0059 101.817 20.3507 101.817 23.3056C101.817 25.5402 101.266 27.4366 100.163 28.9949C99.0607 30.5532 97.3991 31.6632 95.1796 32.3247C96.5171 34.2212 97.8258 36.1911 99.1048 38.2346C100.384 40.278 101.611 42.3729 102.787 44.5193H97.3848C96.3114 42.4317 95.1796 40.3956 93.9888 38.411C92.8124 36.4263 91.6583 34.6107 90.5265 32.9642C90.4383 32.9642 90.3426 32.9642 90.2401 32.9642H81.6617V44.5193H77.0309ZM89.799 17.9471H81.6617V28.7524H89.799C92.298 28.7524 94.1355 28.3113 95.3119 27.4293C96.4879 26.5325 97.0761 25.1726 97.0761 23.3497C97.0761 21.5268 96.4879 20.1743 95.3119 19.2922C94.1355 18.3955 92.298 17.9471 89.799 17.9471ZM116.507 45.0485C114.39 45.0485 112.53 44.5634 110.928 43.5931C109.34 42.6228 108.098 41.2703 107.201 39.5356C106.319 37.8009 105.878 35.7942 105.878 33.5155C105.878 31.2368 106.319 29.2301 107.201 27.4954C108.098 25.746 109.34 24.3862 110.928 23.4159C112.53 22.4309 114.39 21.9384 116.507 21.9384H116.992C118.918 21.9384 120.609 22.4162 122.064 23.3718C123.534 24.3126 124.68 25.6798 125.504 27.4734C126.327 29.2522 126.739 31.3986 126.739 33.9125V35.2576H110.443C110.707 37.0658 111.384 38.4918 112.471 39.5356C113.574 40.5647 115.007 41.0792 116.772 41.0792H117.213C118.271 41.0792 119.285 40.866 120.256 40.4397C121.226 39.9987 122.042 39.4106 122.703 38.6756L125.416 41.5423C124.416 42.6155 123.181 43.4681 121.711 44.1003C120.256 44.7324 118.682 45.0485 116.992 45.0485H116.507ZM116.375 25.9077C114.801 25.9077 113.486 26.4296 112.427 27.4734C111.384 28.5024 110.722 29.9137 110.443 31.7073H122.306C122.174 30.0755 121.637 28.7009 120.697 27.5836C119.771 26.4663 118.477 25.9077 116.816 25.9077H116.375ZM137.897 44.9603C135.574 44.9603 133.766 44.3649 132.472 43.1741C131.193 41.9686 130.554 40.3882 130.554 38.433C130.554 36.4925 131.274 34.868 132.715 33.5596C134.17 32.2512 136.486 31.597 139.661 31.597H145.659V31.5309C145.659 27.8262 143.954 25.9739 140.543 25.9739C139.117 25.9739 137.911 26.2311 136.927 26.7457C135.957 27.2602 135.17 27.9806 134.567 28.9067L131.546 26.459C132.487 25.0036 133.722 23.8863 135.251 23.1072C136.794 22.328 138.544 21.9384 140.499 21.9384H140.984C143.689 21.9384 145.865 22.7176 147.512 24.2759C149.158 25.8342 149.981 28.1643 149.981 31.2663V44.5193H145.747V40.9249C144.895 42.2185 143.799 43.2182 142.461 43.9239C141.124 44.6148 139.602 44.9603 137.897 44.9603ZM138.867 41.0351C140.572 41.0351 141.991 40.6529 143.123 39.8884C144.255 39.1093 145.1 38.0582 145.659 36.7351V35.0591H139.838C138.103 35.0591 136.86 35.3384 136.111 35.8971C135.376 36.441 135.008 37.1834 135.008 38.1243C135.008 40.0649 136.294 41.0351 138.867 41.0351ZM165.718 45.0485C163.601 45.0485 161.727 44.5854 160.095 43.6593C158.464 42.7331 157.185 41.41 156.258 39.69C155.347 37.9552 154.891 35.8971 154.891 33.5155C154.891 31.1192 155.347 29.0611 156.258 27.3411C157.17 25.6063 158.434 24.2759 160.051 23.3497C161.683 22.4088 163.572 21.9384 165.718 21.9384H166.203C167.909 21.9384 169.519 22.3795 171.033 23.2615C172.562 24.1289 173.797 25.327 174.738 26.8559L171.319 29.2375C170.688 28.2378 169.93 27.4587 169.048 26.9C168.166 26.3267 167.166 26.04 166.049 26.04H165.608C163.697 26.04 162.19 26.7162 161.087 28.0688C160 29.4065 159.456 31.2148 159.456 33.4935C159.456 35.7574 160 37.5656 161.087 38.9182C162.19 40.2707 163.697 40.9469 165.608 40.9469H166.049C167.166 40.9469 168.195 40.697 169.137 40.1972C170.077 39.6973 170.886 39.0284 171.562 38.1905L174.738 40.8808C173.752 42.1744 172.51 43.1962 171.011 43.9459C169.526 44.681 167.923 45.0485 166.203 45.0485H165.718ZM189.5 44.806C186.883 44.806 184.891 44.1444 183.524 42.8213C182.157 41.4982 181.473 39.4621 181.473 36.713V26.3047H177.151V22.4677H181.473V15.8962H185.884V22.4677H193.315V26.3047H185.884V36.1176C185.884 37.8523 186.244 39.0578 186.964 39.7341C187.684 40.4103 188.75 40.7485 190.162 40.7485C190.838 40.7485 191.441 40.719 191.97 40.6603C192.514 40.6014 193.072 40.5279 193.646 40.4397V44.2988C193.057 44.4457 192.396 44.5634 191.661 44.6516C190.926 44.7545 190.206 44.806 189.5 44.806Z" fill="#646464"/>
<path d="M32.3816 23.4761C31.1616 23.4761 29.9689 23.8384 28.9545 24.5171C27.94 25.1958 27.1494 26.1606 26.6825 27.2893C26.2156 28.418 26.0934 29.6601 26.3314 30.8583C26.5695 32.0566 27.157 33.1573 28.0197 34.0212C28.8824 34.885 29.9816 35.4733 31.1782 35.7117C32.3748 35.9501 33.6151 35.8277 34.7423 35.3602C35.8695 34.8926 36.8329 34.1009 37.5108 33.0851C38.1886 32.0692 38.5504 30.875 38.5504 29.6532C38.5504 28.0149 37.9005 26.4437 36.7436 25.2853C35.5868 24.1268 34.0177 23.4761 32.3816 23.4761Z" fill="#646464"/>
<path d="M64.7628 29.6513C64.7628 24.7759 60.2526 20.4999 53.0719 17.6859C53.1679 17.0522 53.2545 16.4253 53.3161 15.8098C54.0244 8.80449 52.3385 3.74837 48.571 1.57035C44.3556 -0.866201 38.4017 0.902297 32.3815 5.72508C26.3612 0.902297 20.4072 -0.866201 16.1919 1.57035C12.4244 3.74837 10.7383 8.80449 11.4466 15.8098C11.5082 16.4253 11.5928 17.0544 11.691 17.6905C11.0925 17.9192 10.5052 18.1618 9.94094 18.4157C3.53001 21.3007 0.00012207 25.2952 0.00012207 29.6513C0.00012207 34.5267 4.51016 38.8027 11.691 41.6167C11.5928 42.2504 11.5082 42.8773 11.4466 43.4927C10.7383 50.4981 12.4244 55.5541 16.1919 57.7322C17.4873 58.4676 18.955 58.8433 20.4438 58.8215C24.0125 58.8215 28.1799 56.9405 32.3815 53.5774C36.5808 56.9405 40.7504 58.8215 44.3237 58.8215C45.8124 58.8433 47.2801 58.4671 48.5755 57.7322C52.3431 55.5541 54.0292 50.4981 53.3209 43.4927C53.2593 42.8773 53.1721 42.2504 53.0764 41.6167C60.2574 38.8072 64.7676 34.5244 64.7676 29.6513H64.7628ZM44.2963 3.56992C45.2535 3.5468 46.1997 3.77894 47.0379 4.24257C49.6539 5.75483 50.8283 9.85691 50.2571 15.4964C50.2182 15.8808 50.1726 16.2697 50.1178 16.6609C47.1319 15.7605 44.0744 15.1183 40.9789 14.7414C39.1024 12.2437 37.0156 9.91148 34.7416 7.7704C38.3126 5.00667 41.6643 3.56992 44.294 3.56992H44.2963ZM43.0671 35.8284C41.9116 37.8368 40.6533 39.784 39.2973 41.6625C36.9989 41.8989 34.6897 42.0165 32.3792 42.0148C30.0694 42.0164 27.761 41.8988 25.4633 41.6625C24.1109 39.784 22.8565 37.8367 21.705 35.8284C20.5495 33.8257 19.4994 31.7638 18.5589 29.6513C19.4994 27.5387 20.5495 25.4769 21.705 23.4741C22.8547 21.4739 24.1052 19.5336 25.4519 17.6607C27.7538 17.4184 30.0669 17.2978 32.3815 17.2992C34.6912 17.2979 36.9996 17.4155 39.2973 17.6516C40.6486 19.5274 41.9037 21.4707 43.0579 23.4741C44.2125 25.4774 45.2626 27.5392 46.204 29.6513C45.2626 31.7634 44.2125 33.8252 43.0579 35.8284H43.0671ZM47.7759 33.5406C48.501 35.5206 49.0963 37.5458 49.558 39.6034C47.5545 40.2288 45.5121 40.7218 43.4441 41.0791C44.23 39.8924 44.9916 38.6578 45.7288 37.375C46.4576 36.1076 47.1407 34.8287 47.785 33.5497L47.7759 33.5406ZM32.3837 49.5395C30.8382 48.1111 29.3881 46.5826 28.0428 44.9638C29.4638 45.0508 30.9147 45.1011 32.3837 45.1011C33.8528 45.1011 35.3127 45.0508 36.7361 44.9638C35.3865 46.5825 33.9327 48.1109 32.3837 49.5395ZM21.3211 41.0744C19.2524 40.7188 17.2093 40.2274 15.2049 39.6034C15.6647 37.5491 16.2577 35.5269 16.9802 33.5497C17.6153 34.8287 18.2962 36.1076 19.0364 37.375C19.7766 38.6425 20.542 39.8917 21.3211 41.0791V41.0744ZM16.9802 25.7505C16.2603 23.7807 15.6689 21.7663 15.2095 19.7198C17.2089 19.0951 19.2466 18.6006 21.3097 18.2396C20.5283 19.4224 19.7629 20.6487 19.025 21.9275C18.287 23.2064 17.613 24.4693 16.9688 25.7505H16.9802ZM32.37 9.76084C33.9195 11.1887 35.3735 12.7173 36.7224 14.3365C35.3013 14.2495 33.8505 14.1992 32.37 14.1992C30.9017 14.1992 29.4547 14.245 28.0291 14.3365C29.3744 12.7177 30.8245 11.1891 32.37 9.76084ZM45.7242 21.9275C44.984 20.6433 44.2186 19.4079 43.4281 18.2212C45.5016 18.5785 47.5493 19.0723 49.558 19.6992C49.0971 21.7533 48.5041 23.7754 47.7827 25.7528C47.1476 24.4739 46.4645 23.195 45.7265 21.9298L45.7242 21.9275ZM14.5149 15.4987C13.9369 9.86148 15.1181 5.75712 17.7319 4.24485C18.5703 3.78194 19.5163 3.54986 20.4735 3.57221C23.1032 3.57221 26.4549 5.00896 30.0259 7.77269C27.7503 9.91531 25.6621 12.249 23.784 14.7483C20.6894 15.127 17.6322 15.7668 14.6452 16.6609C14.5926 16.2697 14.5446 15.8831 14.5081 15.4987H14.5149ZM3.08449 29.6513C3.08449 26.6268 6.05464 23.5588 11.2066 21.232C11.5585 21.0795 11.9172 20.927 12.2828 20.7745C13.0014 23.8105 13.976 26.7801 15.1958 29.6513C13.9736 32.5281 12.9984 35.5039 12.2805 38.5464C6.45901 36.1556 3.08449 32.8428 3.08449 29.6513ZM17.7319 55.0578C15.1181 53.5456 13.9369 49.4411 14.5149 43.8039C14.5515 43.4195 14.5995 43.0328 14.652 42.6394C17.638 43.5396 20.6954 44.1817 23.7909 44.5589C25.668 47.0576 27.7547 49.3912 30.0282 51.5345C25.0498 55.3851 20.5009 56.6546 17.7387 55.0578H17.7319ZM50.2548 43.8039C50.826 49.4434 49.6516 53.5456 47.0356 55.0578C44.2757 56.6594 39.7245 55.3851 34.7484 51.5345C37.0212 49.3911 39.1071 47.0574 40.9834 44.5589C44.079 44.182 47.1364 43.5398 50.1223 42.6394C50.1771 43.0328 50.2228 43.4195 50.2617 43.8039H50.2548ZM52.4961 38.5419C51.7762 35.5011 50.8002 32.5269 49.5785 29.6513C50.7997 26.7741 51.775 23.7984 52.4939 20.7561C58.3041 23.147 61.6878 26.4598 61.6878 29.6513C61.6878 32.8428 58.3131 36.1556 52.4916 38.5464" fill="#646464"/>
<path d="M32.3819 36.1429C35.7776 36.1429 38.5304 33.2984 38.5304 29.7895C38.5304 26.2805 35.7776 23.436 32.3819 23.436C28.9862 23.436 26.2334 26.2805 26.2334 29.7895C26.2334 33.2984 28.9862 36.1429 32.3819 36.1429Z" fill="#646464"/>
<path d="M64.7643 29.5853C64.7643 24.7272 60.2535 20.4619 53.0756 17.6634C54.2358 10.0491 52.7904 4.01312 48.573 1.5841C44.8067 -0.587007 39.5909 0.47545 33.8855 4.57899C33.3805 4.94085 32.8793 5.32582 32.3781 5.72615C31.8808 5.32582 31.3797 4.94085 30.8786 4.57899C25.1732 0.47545 19.9573 -0.590856 16.191 1.5841C11.9775 4.01312 10.5319 10.0452 11.6961 17.6518C4.51035 20.4542 0 24.7233 0 29.5853C0 34.4433 4.51035 38.7085 11.6884 41.5071C10.528 49.1213 11.9737 55.1575 16.191 57.5863C17.467 58.3218 18.9126 58.6873 20.4855 58.6873C23.5502 58.6873 27.1083 57.3015 30.8786 54.5916C31.3835 54.2297 31.8847 53.8445 32.3859 53.4444C32.8832 53.8445 33.3843 54.2297 33.8855 54.5916C37.6557 57.3053 41.2138 58.6873 44.2785 58.6873C45.8514 58.6873 47.297 58.3218 48.573 57.5863C52.3394 55.4152 54.0238 50.3724 53.3187 43.3856C53.257 42.7697 53.1757 42.1461 53.0756 41.5109C60.2578 38.7123 64.7643 34.4471 64.7643 29.5853ZM35.6896 7.0773C38.897 4.77145 41.8807 3.57043 44.2785 3.57043C45.3155 3.57043 46.2407 3.7937 47.031 4.24795C49.7912 5.84162 50.9709 10.411 50.1266 16.6394C47.351 15.7887 44.2785 15.1382 40.9748 14.7224C38.9972 12.124 36.9001 9.77966 34.7528 7.77791C35.0651 7.53927 35.3773 7.30058 35.6896 7.0773ZM17.733 4.24795C18.5233 3.7937 19.4485 3.57043 20.4855 3.57043C22.8833 3.57043 25.8671 4.76762 29.0744 7.0773C29.3867 7.30058 29.6989 7.53539 30.0112 7.77791C27.8639 9.77966 25.7707 12.1201 23.7931 14.7185C20.4932 15.1343 17.4169 15.7887 14.6413 16.6356C13.797 10.411 14.9728 5.84162 17.733 4.24795ZM3.084 29.5853C3.084 26.4017 6.46096 23.095 12.2859 20.7122C12.9374 23.5339 13.9088 26.5172 15.1926 29.5776C13.9011 32.6417 12.9297 35.6289 12.2782 38.4545C6.46096 36.0716 3.084 32.7688 3.084 29.5853ZM29.0744 52.0931C24.4793 55.3961 20.3467 56.4274 17.733 54.9226C14.9728 53.3291 13.7932 48.7595 14.6374 42.531C17.413 43.3818 20.4855 44.0324 23.7892 44.4481C25.7668 47.0465 27.8639 49.3908 30.0112 51.3926C29.6989 51.6351 29.3867 51.8699 29.0744 52.0931ZM32.382 49.387C28.527 45.8608 24.8224 41.1491 21.6959 35.7444C20.8594 34.3008 19.1681 30.6723 18.4819 29.2673C17.9345 30.5761 17.3938 31.7768 16.9697 33.0547C17.3167 33.6976 18.6543 36.6375 19.0244 37.2804C19.7569 38.5468 20.5241 39.7787 21.3143 40.972C19.0977 40.5832 17.0468 40.0828 15.181 39.4938C16.2411 34.7128 18.3575 29.2003 21.6959 23.4261C22.517 22.0056 24.301 18.834 25.1954 17.5175C23.7845 17.6984 22.6514 17.6385 21.3253 17.9118C20.9398 18.5354 19.3945 21.2472 19.0244 21.8901C18.2842 23.1681 17.6058 24.4462 16.9697 25.7165C16.1987 23.6032 15.6089 21.5783 15.1887 19.669C19.8648 18.1946 25.7052 17.2669 32.382 17.2669C34.0512 17.2669 37.5373 17.2331 39.0947 17.3447C38.2351 16.2168 37.4978 15.1959 36.5996 14.1873C35.871 14.1642 33.126 14.1873 32.382 14.1873C30.9094 14.1873 29.4677 14.2373 28.0528 14.322C29.4561 12.6552 30.9094 11.1308 32.382 9.78349C36.2331 13.3096 39.9417 18.0214 43.0681 23.4261C43.8892 24.8465 45.6634 28.1532 46.3611 29.5853C46.9124 28.2764 47.4339 27.0827 47.8618 25.797C47.5148 25.1503 46.1097 22.5253 45.7396 21.8863C45.0071 20.6198 44.24 19.388 43.4497 18.1985C45.6663 18.5872 47.7172 19.0877 49.583 19.6767C48.5229 24.4578 46.4065 29.9702 43.0681 35.7444C42.247 37.1648 39.9101 40.4177 39.0157 41.7342C40.4267 41.5533 41.9547 41.2828 43.2808 41.0095C43.6663 40.3859 45.3695 37.9232 45.7396 37.2804C46.4759 36.01 47.1544 34.7397 47.7827 33.4732C48.5306 35.5288 49.1243 37.5498 49.556 39.5053C44.8838 40.9797 39.0512 41.9036 32.382 41.9036C30.7128 41.9036 26.8318 41.6843 25.2744 41.5727C26.1341 42.7006 27.06 43.8749 27.9582 44.8834C28.6868 44.9065 31.638 44.9832 32.382 44.9832C33.8546 44.9832 35.2964 44.9331 36.7112 44.8484C35.3041 46.5153 33.8546 48.0396 32.382 49.387ZM47.031 54.9226C44.4173 56.4317 40.2809 55.3998 35.6896 52.0931C35.3773 51.8699 35.0651 51.6351 34.7528 51.3926C36.9001 49.3908 38.9933 47.0503 40.9709 44.4519C44.267 44.0362 47.3356 43.3856 50.1073 42.5387C50.1613 42.9275 50.2152 43.3163 50.2538 43.6974C50.8205 49.3254 49.6447 53.4135 47.031 54.9226ZM52.4858 38.4583C51.8228 35.5943 50.8398 32.611 49.5714 29.5968C50.8629 26.5326 51.8344 23.5454 52.4858 20.7199C58.3029 23.1027 61.6802 26.4017 61.6802 29.5853C61.6802 32.7688 58.3071 36.0716 52.4858 38.4583Z" fill="#646464"/>
</g>
<defs>
<clipPath id="clip0_3051_1559">
<rect width="193.645" height="58.341" fill="white" transform="translate(0 0.481445)"/>
</clipPath>
</defs>
</svg>
