<svg width="271" height="217" viewBox="0 0 271 217" fill="none" xmlns="http://www.w3.org/2000/svg">
<path d="M8.21026 1.94873C1.51919 26.8544 0.960439 54.8393 3.71632 80.2546C10.29 140.878 70.6968 177.408 125.928 186.876C155.659 191.973 186.206 192.884 216.284 194.353C230.689 195.056 245.056 195.228 259.473 195.228C262.761 195.228 266.048 195.228 269.336 195.228C269.881 195.228 265.912 194.696 265.12 194.432C261.318 193.165 257.817 191.155 254.303 189.262C252.68 188.388 250.38 188.046 248.894 187.035C246.923 185.695 250.467 186.163 251.042 186.399C254.618 187.865 258.281 189.731 261.183 192.285C263.105 193.976 270.715 196.991 267.268 199.125C261.129 202.926 251.833 208.126 249.451 215.272" stroke="#F69331" stroke-width="3" stroke-linecap="round"/>
</svg>
